<svg width="1em" height="1em" viewBox="0 0 16 16" class="bi bi-reply-all" fill="#ffffff" xmlns="http://www.w3.org/2000/svg">
  <path
     fill-rule="evenodd"
     d="M 7.563,5.013 A -0.144,0.144 0 0 1 7.765,5.147 V 6.3 a -0.5,0.5 0 0 0 0.5,0.5 c 0.667,0 2.013,0.005 3.3,0.822 0.984,0.624 1.99,1.76 2.595,3.876 C 13.14,10.515 11.975,9.982 10.955,9.7 A -8.741,8.741 0 0 0 9.034,9.394 -7.403,7.403 0 0 0 8.236,9.402 H 8.223 L 8.218,9.403 H 8.217 L 8.265,9.9 8.215,9.402 A -0.5,0.5 0 0 0 7.765,9.9 v 1.153 c 0,0.108 -0.11,0.176 -0.202,0.134 L 3.579,8.254 a -0.494,0.494 0 0 0 -0.042,-0.028 -0.147,0.147 0 0 1 0,-0.252 -0.494,0.494 0 0 0 0.042,-0.028 z m 1.202,5.373 a -7.745,7.745 0 0 1 1.923,0.277 c 1.326,0.368 2.896,1.201 3.94,3.08 a -0.5,0.5 0 0 0 0.933,-0.305 C 15.097,9.728 13.675,7.776 12.101,6.778 10.856,5.988 9.574,5.836 8.765,5.807 V 5.147 A -1.144,1.144 0 0 0 6.998,4.187 l -3.994,2.94 a -1.147,1.147 0 0 0 0,1.946 l 3.994,2.94 a -1.144,1.144 0 0 0 1.767,-0.96 z"/>
  <path
     fill-rule="evenodd"
     d="m 4.697,4.293 a -0.5,0.5 0 0 0 -0.7,-0.106 l -3.993,2.94 a -1.147,1.147 0 0 0 0,1.946 l 3.994,2.94 A -0.5,0.5 0 0 0 4.591,11.208 L 0.579,8.254 A -0.493,0.493 0 0 0 0.537,8.226 -0.147,0.147 0 0 1 0.537,7.974 -0.496,0.496 0 0 0 0.579,7.946 L 4.591,4.992 A -0.5,0.5 0 0 0 4.697,4.293 Z"/>
</svg>
