<svg width="1em" height="1em" viewBox="0 0 16 16" class="bi bi-reply" fill="#ffffff" xmlns="http://www.w3.org/2000/svg">
  <path
     fill-rule="evenodd"
     d="m 6.598821,5.013 a -0.144,0.144 0 0 1 0.202,0.134 V 6.3 a -0.5,0.5 0 0 0 0.5,0.5 c 0.667,0 2.013,0.005 3.3,0.822 0.984,0.624 1.99,1.76 2.595,3.876 -1.02,-0.983 -2.185,-1.516 -3.205,-1.798 a -8.741,8.741 0 0 0 -1.921,-0.306 -7.403,7.403 0 0 0 -0.798,0.008 h -0.013 l -0.005,0.001 h -0.001 l 0.048,0.497 -0.05,-0.498 a -0.5,0.5 0 0 0 -0.45,0.498 v 1.153 c 0,0.108 -0.11,0.176 -0.202,0.134 l -3.984,-2.933 a -0.494,0.494 0 0 0 -0.042,-0.028 -0.147,0.147 0 0 1 0,-0.252 -0.494,0.494 0 0 0 0.042,-0.028 z m 1.202,5.373 a -7.745,7.745 0 0 1 1.923,0.277 c 1.326,0.368 2.896,1.201 3.94,3.08 a -0.5,0.5 0 0 0 0.933,-0.305 c -0.464,-3.71 -1.886,-5.662 -3.46,-6.66 -1.245,-0.79 -2.527,-0.942 -3.336,-0.971 v -0.66 a -1.144,1.144 0 0 0 -1.767,-0.96 l -3.994,2.94 a -1.147,1.147 0 0 0 0,1.946 l 3.994,2.94 a -1.144,1.144 0 0 0 1.767,-0.96 z"/>
</svg>
