<?xml version="1.0" encoding="UTF-8" standalone="no"?>
<!-- Created with Inkscape (http://www.inkscape.org/) -->

<svg
   xmlns:dc="http://purl.org/dc/elements/1.1/"
   xmlns:cc="http://creativecommons.org/ns#"
   xmlns:rdf="http://www.w3.org/1999/02/22-rdf-syntax-ns#"
   xmlns:svg="http://www.w3.org/2000/svg"
   xmlns="http://www.w3.org/2000/svg"
   xmlns:sodipodi="http://sodipodi.sourceforge.net/DTD/sodipodi-0.dtd"
   xmlns:inkscape="http://www.inkscape.org/namespaces/inkscape"
   width="144.13535mm"
   height="172.36574mm"
   viewBox="0 0 510.71579 610.74474"
   id="svg2"
   version="1.1"
   inkscape:version="0.91 r13725"
   sodipodi:docname="otp-logo.svg">
  <defs
     id="defs4" />
  <sodipodi:namedview
     id="base"
     pagecolor="#ffffff"
     bordercolor="#666666"
     borderopacity="1.0"
     inkscape:pageopacity="0.0"
     inkscape:pageshadow="2"
     inkscape:zoom="2.8313204"
     inkscape:cx="297.47451"
     inkscape:cy="274.48577"
     inkscape:document-units="px"
     inkscape:current-layer="layer1"
     showgrid="false"
     fit-margin-top="0"
     fit-margin-left="0"
     fit-margin-right="0"
     fit-margin-bottom="0"
     inkscape:window-width="1200"
     inkscape:window-height="1856"
     inkscape:window-x="1024"
     inkscape:window-y="27"
     inkscape:window-maximized="1" />
  <metadata
     id="metadata7">
    <rdf:RDF>
      <cc:Work
         rdf:about="">
        <dc:format>image/svg+xml</dc:format>
        <dc:type
           rdf:resource="http://purl.org/dc/dcmitype/StillImage" />
        <dc:title />
      </cc:Work>
    </rdf:RDF>
  </metadata>
  <g
     inkscape:label="Layer 1"
     inkscape:groupmode="layer"
     id="layer1"
     transform="translate(-41.590631,-34.29072)">
    <path
       style="fill:#005a9a;fill-opacity:1"
       d="m 378.28323,234.57807 -8.26374,-2.83011 c -4.13856,-1.33176 -7.52344,-2.76701 -7.52344,-3.18946 0,-0.42245 2.27938,-7.46638 5.06641,-15.65234 25.12633,-73.80012 61.88717,-120.989852 101.11328,-129.798832 25.61776,-5.75297 41.64886,-0.50541 53.99414,17.673832 16.0964,23.70301 24.10827,63.28044 24.13867,119.24219 0.0294,54.09878 -7.25349,110.14567 -21.91602,168.66601 -17.36348,69.30025 -50.98362,137.55858 -94.24218,191.33399 -16.66511,20.71667 -43.37838,46.73805 -53.26368,51.88476 -1.31487,0.68459 -4.19062,2.42989 -6.39062,3.87891 -2.2,1.44903 -6.10872,3.19295 -8.68555,3.875 -8.93917,2.36603 -12.06464,-1.41023 -13.95507,-16.86524 -1.84502,-15.08348 2.11547,-48.218 10.09765,-84.46679 2.22273,-10.0939 4.04297,-18.90479 4.04297,-19.58008 0,-0.6753 -0.84253,-1.22656 -1.87109,-1.22656 -2.07969,0 -3.67634,5.78365 -9.11524,33.00976 -11.05605,55.34458 -10.38081,87.01545 1.99024,93.25195 4.27616,2.1557 7.14132,1.68758 16.49609,-2.6914 10.70553,-5.01126 22.50824,-14.36724 39.06641,-30.9668 18.29901,-18.34472 32.60768,-36.07703 48.90234,-60.60351 26.77188,-40.29665 45.30601,-78.25208 60.55078,-124 18.80481,-56.43119 29.21915,-117.94941 33.68359,-198.9668 0.8201,-14.88254 -3.20552,-58.76391 -7.20507,-78.5332 -8.24158,-40.73716 -24.97894,-65.641172 -47.29883,-70.376962 -3.14453,-0.6672 -6.48781,-1.02784 -9.96094,-1.09765 -15.05023,-0.30252 -32.53024,4.85393 -46.76367,14.16015 -9.73505,6.36506 -26.02002,22.341332 -34.45313,33.800792 -16.69676,22.68864 -32.81321,55.72086 -44.28515,90.76367 -2.20565,6.7375 -4.51271,12.24333 -5.125,12.23633 -0.61229,-0.007 -3.99073,-0.91455 -7.50977,-2.01758 -3.51904,-1.10304 -6.52549,-1.88076 -6.67968,-1.72657 -0.31861,0.31863 7.62446,35.05791 8.14648,35.62891 0.18671,0.20422 6.0144,-4.97078 12.94922,-11.5"
       id="path4276"
       inkscape:connector-curvature="0"
       sodipodi:nodetypes="ccsssssssssssssssssssssssssssssccc"
       inkscape:export-xdpi="400"
       inkscape:export-ydpi="400" />
    <path
       style="fill:#005a9a;fill-opacity:1"
       d="M 200.15037,627.92572 C 170.08024,622.49287 142.5445,604.89934 119.90044,576.65129 85.145159,533.29469 67.301599,490.04247 65.803719,445.52253 c -1.4405,-42.8147 10.50254,-73.04499 35.523011,-89.91604 10.22345,-6.89356 23.14151,-12.03983 30.30315,-12.07209 2.4356,-0.011 2.68576,-0.41993 3.30922,-5.40993 1.49637,-11.97654 0.44875,-11.93558 14.56453,-0.56944 6.87031,5.53203 13.29058,10.84943 14.26727,11.81645 1.69678,1.67996 1.04817,2.03398 -14.57393,7.95463 -8.99236,3.40803 -16.81407,6.19642 -17.38158,6.19642 -0.68268,0 -0.57957,-2.60076 0.30471,-7.6859 0.7351,-4.22724 1.15588,-7.86655 0.93508,-8.08736 -1.03401,-1.03401 -12.17311,2.26228 -19.2216,5.68806 -19.499651,9.47743 -30.322291,21.79282 -37.375921,42.53109 -5.14105,15.11516 -6.42703,24.11987 -6.36285,44.55411 0.0507,16.13168 0.40608,20.16422 2.77626,31.5 6.93329,33.15963 21.13398,63.39555 44.216391,94.14494 11.43632,15.23496 21.84936,26.05092 33.6086,34.90903 40.4226,30.44991 90.83844,32.43604 134.45485,5.29682 10.67356,-6.64135 27.89888,-22.89221 35.58398,-33.57092 10.24763,-14.23946 19.23809,-34.76261 21.29406,-48.6094 0.69634,-4.68977 2.65123,-6.89952 4.47042,-5.05325 1.08023,1.0963 -1.15443,11.99852 -4.50561,21.9815 -6.21344,18.50953 -16.43815,34.53403 -31.90203,49.9979 -25.73682,25.73682 -55.86601,38.56622 -89.97762,38.31363 -6.66546,-0.0494 -15.64914,-0.72753 -19.96374,-1.50706 z"
       id="path4272"
       inkscape:connector-curvature="0"
       inkscape:export-xdpi="400"
       inkscape:export-ydpi="400" />
    <path
       style="fill:#005a9a;fill-opacity:1"
       d="m 406.44088,552.69048 c -5.49753,-3.50204 -10.78966,-9.31308 -16.39879,-18.00672 -6.07432,-9.41466 -14.7771,-27.11918 -14.14295,-28.77175 1.18038,-3.07603 3.33645,-0.99874 6.73988,6.4936 10.79555,23.76545 25.37414,40.70961 33.31202,38.71734 7.77146,-1.95052 20.94873,-33.23852 27.41772,-65.10042 4.8279,-23.77898 6.48346,-40.94617 6.50956,-67.5 0.0127,-12.925 -0.53823,-28.45 -1.2243,-34.5 -6.84853,-60.39296 -25.40349,-109.42749 -60.79613,-160.66373 -4.81256,-6.96691 -7.14958,-11.2283 -6.7413,-12.29227 0.34371,-0.89569 1.13198,-1.46363 1.75172,-1.2621 0.61973,0.20154 5.85179,7.38888 11.62679,15.97187 32.85381,48.82838 49.60849,92.64629 57.64093,150.74623 2.17732,15.7489 2.51832,63.13639 0.56849,79 -5.39436,43.88788 -17.77492,83.06766 -30.34026,96.01539 -4.90127,5.05042 -9.3042,5.36911 -15.92338,1.15256 z"
       id="path4266"
       inkscape:connector-curvature="0"
       inkscape:export-xdpi="400"
       inkscape:export-ydpi="400" />
    <path
       style="fill:#005a9a;fill-opacity:1"
       d="M 280.9951,520.44681 C 222.49354,512.40917 175.76365,467.19929 165.92485,409.1195 c -2.47773,-14.62639 -1.56578,-39.36038 1.96865,-53.39357 11.5836,-45.99191 45.0388,-81.7674 89.84912,-96.08062 13.23318,-4.22691 25.82415,-6.11396 40.82626,-6.11876 36.18425,-0.0116 68.19124,13.25611 93.99803,38.96448 42.03694,41.87662 51.80924,103.60457 24.74357,156.29586 -18.47207,35.96131 -52.3475,61.64235 -92.08171,69.80734 -11.78571,2.42185 -33.47779,3.33035 -44.23367,1.85258 z"
       id="path4264"
       inkscape:connector-curvature="0"
       inkscape:export-xdpi="400"
       inkscape:export-ydpi="400" />
    <path
       style="fill:#ffffff;fill-opacity:1"
       d="m 246.49605,358.121 c -9.24166,0 -14.07107,1.56996 -19.29102,6.27149 -5.86646,5.28382 -8.00976,10.84821 -8.00976,20.79687 0,14.18747 5.90824,22.65055 18.10351,25.9336 6.44768,1.73575 12.86402,1.68832 19.0293,-0.14258 6.12172,-1.81795 11.42861,-6.16729 14.47656,-11.86328 1.83573,-3.43059 2.19141,-5.71558 2.19141,-14.09375 0,-11.36179 -1.63235,-15.77627 -7.85547,-21.24024 -4.71116,-4.13646 -9.73465,-5.66211 -18.64453,-5.66211 z m -0.91016,11.72657 c 4.28554,-0.14911 8.75754,2.068 10.44532,6.10742 2.01817,4.83015 1.87264,14.24656 -0.28711,18.55273 -3.40975,6.79841 -11.35151,8.11446 -16.69922,2.76563 -2.322,-2.32249 -3.44507,-4.56221 -3.9375,-7.84766 -0.86472,-5.76926 0.85661,-13.70861 3.60742,-16.63672 1.79467,-1.91033 4.29977,-2.85194 6.87109,-2.9414 z"
       id="path4262"
       inkscape:connector-curvature="0"
       inkscape:export-xdpi="400"
       inkscape:export-ydpi="400" />
    <path
       style="fill:#ffffff;fill-opacity:1"
       d="m 310.4951,391.52253 0,-20 8.5,0 8.5,0 0,-6.5 0,-6.5 -25,0 -25,0 0,6.5 0,6.5 8.5,0 8.5,0 0,20 0,20 8,0 8,0 0,-20 z"
       id="path4258"
       inkscape:connector-curvature="0"
       inkscape:export-xdpi="400"
       inkscape:export-ydpi="400" />
    <path
       style="fill:#ffffff;fill-opacity:1"
       d="m 335.49605,358.35343 0,26.58398 0,26.58594 8,0 8,0 0,-10 0,-10 7.78711,0 c 13.93665,0 20.21168,-5.27888 20.20703,-17 -0.003,-6.55174 -2.3796,-11.07312 -7.20117,-13.69727 -2.70767,-1.47366 -6.27537,-1.85339 -20.04297,-2.13281 z m 16,11.16992 4.94141,0 c 4.56475,0.0184 8.05859,1.13989 8.05859,6.14844 0,5.00855 -3.23774,5.85156 -9.13672,5.85156 l -3.86328,0 0,-6 z"
       id="path4256"
       inkscape:connector-curvature="0"
       inkscape:export-xdpi="400"
       inkscape:export-ydpi="400"
       sodipodi:nodetypes="cccccccscssccczsccc" />
    <path
       style="fill:#005a9a;fill-opacity:1"
       d="m 151.91077,330.31181 -3.70579,-7.48926 -5.94403,1.84999 c -25.52501,7.94427 -54.597431,-11.73577 -75.595571,-51.17305 -12.64224,-23.74379 -20.1215,-49.60835 -23.62051,-81.68377 -1.94161,-17.79884 -1.93998,-23.96286 0.0109,-41.09101 4.95594,-43.51194 18.4805,-77.073912 38.48927,-95.513302 11.58654,-10.67775 22.590541,-16.04541 39.760491,-19.39482 14.30013,-2.78958 26.51534,-1.85624 47.69965,3.64466 50.54769,13.12564 116.43337,58.46011 170.90471,117.595722 18.70386,20.30543 20.72803,22.90531 19.79562,25.42585 -0.73779,1.99445 -2.20112,0.65396 -14.91676,-13.6645 -30.08524,-33.87753 -65.71471,-65.43132 -99.40991,-88.038332 -51.41078,-34.49287 -98.97148,-48.32457 -132.88372,-38.64551 -19.058141,5.43948 -35.936731,20.34037 -46.314861,40.88806 -11.90967,23.580002 -18.25036,49.936182 -19.36643,80.499992 -1.85823,50.88778 13.84498,101.76022 41.55376,134.61836 16.517341,19.5869 38.805681,28.43926 54.909151,21.80851 l 3.28161,-1.35124 -3.54419,-7.03781 c -3.49148,-6.93317 -3.51054,-7.03786 -1.28161,-7.04072 3.87203,-0.005 34.24261,2.26139 34.62224,2.58362 0.32967,0.27982 -18.03766,27.7663 -19.91901,29.80855 -0.45056,0.4891 -2.48681,-2.48089 -4.52499,-6.59999 z"
       id="path4250"
       inkscape:connector-curvature="0"
       inkscape:export-xdpi="400"
       inkscape:export-ydpi="400" />
    <g
       id="g4295"
       style="fill:#b0c7e0;fill-opacity:1"
       transform="translate(626.43355,679.68741)"
       inkscape:export-xdpi="400"
       inkscape:export-ydpi="400">
      <path
         sodipodi:nodetypes="sssssscs"
         inkscape:connector-curvature="0"
         id="path4293"
         d="m -216.43164,-391.13086 c 12.07954,23.91065 24.85408,61.95304 28.95117,86.2168 0.39251,2.32456 1.18616,3.75 2.08789,3.75 1.84151,0 1.97251,1.22385 -1.65039,-15.32227 -7.82498,-35.73746 -22.76954,-72.04636 -42.84765,-104.10156 -9.88843,-15.78713 -23.0289,-34.57617 -24.18165,-34.57617 -1.88567,0 0.19774,5.54055 4.04497,9.90146 3.72074,2.79362 25.83278,38.76561 33.59566,54.13174 z"
         style="fill:#b0c7e0;fill-opacity:1" />
      <path
         id="path4274"
         d="m -254.31416,-46.963785 c -0.3085,-0.49917 1.56233,-2.41089 4.1574,-4.24827 2.59507,-1.83739 11.49199,-10.11593 19.77094,-18.39677 56.02671,-56.039475 101.33506,-141.170785 121.97883,-229.189925 14.068759,-59.98517 20.257949,-114.60362 19.135389,-168.86613 -1.21271,-58.62018 -10.878109,-96.01798 -30.400469,-117.6269 -2.38221,-2.63682 -2.99465,-3.923 -2.12418,-4.46098 1.66513,-1.0291 8.92784,7.13501 13.76479,15.4732 13.671199,23.56711 20.629639,57.60398 21.796119,106.61468 1.2156,51.07455 -5.52357,109.89269 -19.363429,169 -17.6206,75.25416 -50.53556,143.94969 -97.34135,203.157365 -16.58946,20.98508 -49.30237,51.89576 -51.37404,48.54373 z"
         style="fill:#b0c7e0;fill-opacity:1"
         inkscape:connector-curvature="0" />
      <path
         id="path4270"
         d="m -400.93845,-55.818395 c -23.76534,-2.26402 -41.3913,-8.37759 -59.93686,-20.7891 -18.31114,-12.25463 -32.84067,-27.872715 -50.20111,-53.962205 -20.34337,-30.57229 -32.71798,-61.83971 -36.89855,-93.23306 -1.60457,-12.04926 -0.72509,-42.21718 1.52347,-52.25768 1.89479,-8.46086 6.95609,-22.96049 8.9816,-25.73054 2.86809,-3.92235 2.70236,-0.0912 -0.32775,7.57681 -4.45892,11.28372 -6.94563,22.51674 -8.31444,37.55814 -1.00342,11.02625 -0.93547,15.21736 0.44582,27.5 4.36124,38.78077 19.62797,74.87473 47.11955,111.40117 16.57513,22.022375 32.72793,36.349115 52.23301,46.328085 14.36521,7.34937 24.01897,10.11221 44.62526,12.77145 3.18161,0.41058 4.75,1.08804 4.75,2.05171 0,0.7913 -0.1125,1.36671 -0.25,1.27869 -0.1375,-0.088 -1.825,-0.31008 -3.75,-0.49347 z"
         style="fill:#b0c7e0;fill-opacity:1"
         inkscape:connector-curvature="0" />
      <path
         id="path4268"
         d="m -423.54434,-69.486425 c -28.89268,-11.71938 -51.73966,-32.609105 -75.66009,-69.178455 -18.82941,-28.78624 -30.77419,-59.51466 -35.27644,-90.75 -0.57469,-3.98699 -0.42548,-4.75 0.92888,-4.75 0.97836,0 1.61354,0.83627 1.61354,2.12436 0,1.16839 1.12814,7.69607 2.50699,14.50594 6.95713,34.36011 23.40018,67.88248 48.98705,99.8697 17.58837,21.987955 34.89975,35.609785 57.27089,45.064795 5.07929,2.14673 9.23507,4.47285 9.23507,5.16917 0,1.75496 -0.44802,1.65909 -9.60589,-2.05551 z"
         style="fill:#b0c7e0;fill-opacity:1"
         inkscape:connector-curvature="0" />
      <path
         id="path4252"
         d="m -157.66328,-176.81877 c -0.8619,-0.34903 -0.23509,-2.47387 2.11543,-7.17105 4.13621,-8.26565 14.19821,-33.14405 19.07983,-47.17506 5.96038,-17.13165 12.10297,-39.30438 16.93812,-61.14106 21.543254,-97.29443 23.443874,-190.85611 4.95936,-244.13321 -4.58725,-13.22162 -9.17796,-21.89396 -15.90982,-30.05529 -3.23296,-3.91948 -4.99617,-6.83788 -4.36639,-7.22711 1.42817,-0.88266 5.34466,2.90414 9.88397,9.55668 12.48698,18.30012 19.27494,41.16597 24.19413,81.49999 1.597914,13.10179 1.592814,68.94208 -0.008,86.5 -6.9197,75.90118 -21.25465,139.55178 -43.69135,194 -4.90483,11.90278 -11.28308,26.03929 -11.69531,25.92105 -0.15139,-0.0434 -0.82642,-0.30214 -1.50008,-0.57494 z"
         style="fill:#b0c7e0;fill-opacity:1"
         inkscape:connector-curvature="0" />
      <path
         id="path4248"
         d="m -227.43845,-425.36119 c -3.3,-5.57327 -9.7125,-15.49653 -14.25,-22.05169 -7.69295,-11.11372 -9.51282,-14.752 -7.37896,-14.752 1.71889,0 30.12896,43.40882 30.12896,46.03516 0,3.15987 -3.25815,-0.37866 -8.5,-9.23147 z"
         style="fill:#b0c7e0;fill-opacity:1"
         inkscape:connector-curvature="0" />
      <path
         id="path4246"
         d="m -281.93057,-485.91488 c -9.60154,-11.57029 -49.86587,-51.45392 -63.00788,-62.41211 -16.20838,-13.51504 -34.72236,-27.24302 -49.14757,-36.44256 -16.83144,-10.7341 -44.04346,-24.25285 -58.17675,-28.90184 -6.42163,-2.11232 -11.67568,-4.18593 -11.67568,-4.60801 0,-1.98128 2.57327,-1.61891 12.15404,1.71152 34.16265,11.87549 68.98549,32.96728 107.84596,65.32103 24.16935,20.12247 70.69248,68.11383 69.37025,71.55951 -0.32133,0.83735 -0.66227,1.52246 -0.75765,1.52246 -0.0954,0 -3.06751,-3.4875 -6.60472,-7.75 z"
         style="fill:#b0c7e0;fill-opacity:1"
         inkscape:connector-curvature="0" />
      <path
         id="path3442"
         d="m -280.53712,-497.41488 c -12.12651,-14.11346 -43.40696,-45.28335 -57.90133,-57.69669 -39.12407,-33.50685 -78.79068,-57.91451 -112.08102,-68.9657 -14.9746,-4.97102 -25.24998,-7.10355 -37.66898,-7.81773 -7.75747,-0.44611 -9.75,-0.86769 -9.75,-2.06289 0,-1.2802 1.44079,-1.40132 9.75,-0.81965 42.74607,2.99238 92.65179,27.96881 147.27133,73.7052 24.5137,20.52688 69.97867,67.29949 69.97867,71.99138 0,1.05384 -0.17813,1.91608 -0.39585,1.91608 -0.21772,0 -4.35898,-4.6125 -9.20282,-10.25 z"
         style="fill:#b0c7e0;fill-opacity:1"
         inkscape:connector-curvature="0" />
    </g>
  </g>
</svg>
